<svg width="171" height="41" viewBox="0 0 171 41" fill="none" xmlns="http://www.w3.org/2000/svg">
<path d="M159.395 1.90909V7H158.779V2.5554H158.749L157.506 3.38068V2.75426L158.779 1.90909H159.395ZM162.52 7.0696C162.145 7.0696 161.826 6.96768 161.563 6.76385C161.299 6.55836 161.098 6.26089 160.959 5.87145C160.82 5.48035 160.75 5.00805 160.75 4.45455C160.75 3.90436 160.82 3.43454 160.959 3.0451C161.1 2.654 161.302 2.35571 161.565 2.15021C161.831 1.94306 162.149 1.83949 162.52 1.83949C162.891 1.83949 163.209 1.94306 163.472 2.15021C163.737 2.35571 163.939 2.654 164.079 3.0451C164.219 3.43454 164.29 3.90436 164.29 4.45455C164.29 5.00805 164.22 5.48035 164.081 5.87145C163.942 6.26089 163.741 6.55836 163.477 6.76385C163.214 6.96768 162.895 7.0696 162.52 7.0696ZM162.52 6.52273C162.891 6.52273 163.18 6.34375 163.385 5.9858C163.591 5.62784 163.693 5.11742 163.693 4.45455C163.693 4.01373 163.646 3.63838 163.552 3.32848C163.459 3.01858 163.325 2.78243 163.149 2.62003C162.975 2.45762 162.765 2.37642 162.52 2.37642C162.152 2.37642 161.865 2.55788 161.657 2.92081C161.45 3.28208 161.347 3.79332 161.347 4.45455C161.347 4.89536 161.393 5.26989 161.486 5.57812C161.579 5.88636 161.712 6.12086 161.886 6.28161C162.062 6.44235 162.273 6.52273 162.52 6.52273ZM166.825 7.0696C166.534 7.0696 166.271 7.0116 166.037 6.8956C165.804 6.77959 165.616 6.6205 165.476 6.41832C165.335 6.21615 165.258 5.9858 165.244 5.72727H165.841C165.864 5.95762 165.969 6.1482 166.154 6.29901C166.342 6.44815 166.565 6.52273 166.825 6.52273C167.034 6.52273 167.22 6.47384 167.382 6.37607C167.546 6.27829 167.675 6.14406 167.768 5.97337C167.862 5.80102 167.909 5.6063 167.909 5.3892C167.909 5.16714 167.86 4.96911 167.763 4.7951C167.666 4.61944 167.534 4.48106 167.365 4.37997C167.196 4.27888 167.003 4.22751 166.786 4.22585C166.63 4.22419 166.47 4.24822 166.306 4.29794C166.142 4.346 166.007 4.40814 165.901 4.48438L165.324 4.41477L165.632 1.90909H168.277V2.45597H166.149L165.97 3.95739H166C166.105 3.87453 166.235 3.80575 166.393 3.75107C166.55 3.69638 166.714 3.66903 166.885 3.66903C167.197 3.66903 167.474 3.74361 167.718 3.89276C167.963 4.04025 168.155 4.24242 168.295 4.49929C168.435 4.75616 168.506 5.04948 168.506 5.37926C168.506 5.70407 168.433 5.99408 168.287 6.24929C168.143 6.50284 167.944 6.70336 167.69 6.85085C167.437 6.99669 167.149 7.0696 166.825 7.0696Z" fill="#D9B26F"/>
<path d="M0.735 40V35.1H2.646C3.07533 35.1 3.44167 35.1677 3.745 35.303C4.04833 35.4383 4.28167 35.6343 4.445 35.891C4.60833 36.1477 4.69 36.4533 4.69 36.808C4.69 37.1627 4.60833 37.4683 4.445 37.725C4.28167 37.977 4.04833 38.1707 3.745 38.306C3.44167 38.4413 3.07533 38.509 2.646 38.509H1.12L1.435 38.187V40H0.735ZM4.011 40L2.765 38.222H3.514L4.774 40H4.011ZM1.435 38.257L1.12 37.914H2.625C3.073 37.914 3.41133 37.8183 3.64 37.627C3.87333 37.431 3.99 37.158 3.99 36.808C3.99 36.458 3.87333 36.1873 3.64 35.996C3.41133 35.8047 3.073 35.709 2.625 35.709H1.12L1.435 35.359V38.257ZM6.45794 37.214H8.97794V37.809H6.45794V37.214ZM6.52094 39.391H9.37694V40H5.82094V35.1H9.27894V35.709H6.52094V39.391ZM11.9384 40.056C11.5651 40.056 11.2081 40 10.8674 39.888C10.5267 39.7713 10.2584 39.622 10.0624 39.44L10.3214 38.894C10.5081 39.0573 10.7461 39.1927 11.0354 39.3C11.3247 39.4073 11.6257 39.461 11.9384 39.461C12.2231 39.461 12.4541 39.4283 12.6314 39.363C12.8087 39.2977 12.9394 39.209 13.0234 39.097C13.1074 38.9803 13.1494 38.8497 13.1494 38.705C13.1494 38.537 13.0934 38.4017 12.9814 38.299C12.8741 38.1963 12.7317 38.1147 12.5544 38.054C12.3817 37.9887 12.1904 37.9327 11.9804 37.886C11.7704 37.8393 11.5581 37.7857 11.3434 37.725C11.1334 37.6597 10.9397 37.578 10.7624 37.48C10.5897 37.382 10.4497 37.2513 10.3424 37.088C10.2351 36.92 10.1814 36.7053 10.1814 36.444C10.1814 36.192 10.2467 35.961 10.3774 35.751C10.5127 35.5363 10.7181 35.366 10.9934 35.24C11.2734 35.1093 11.6281 35.044 12.0574 35.044C12.3421 35.044 12.6244 35.0813 12.9044 35.156C13.1844 35.2307 13.4271 35.338 13.6324 35.478L13.4014 36.038C13.1914 35.898 12.9697 35.7977 12.7364 35.737C12.5031 35.6717 12.2767 35.639 12.0574 35.639C11.7821 35.639 11.5557 35.674 11.3784 35.744C11.2011 35.814 11.0704 35.9073 10.9864 36.024C10.9071 36.1407 10.8674 36.2713 10.8674 36.416C10.8674 36.5887 10.9211 36.7263 11.0284 36.829C11.1404 36.9317 11.2827 37.0133 11.4554 37.074C11.6327 37.1347 11.8264 37.1907 12.0364 37.242C12.2464 37.2887 12.4564 37.3423 12.6664 37.403C12.8811 37.4637 13.0747 37.543 13.2474 37.641C13.4247 37.739 13.5671 37.8697 13.6744 38.033C13.7817 38.1963 13.8354 38.4063 13.8354 38.663C13.8354 38.9103 13.7677 39.1413 13.6324 39.356C13.4971 39.566 13.2871 39.7363 13.0024 39.867C12.7224 39.993 12.3677 40.056 11.9384 40.056ZM15.7627 40V35.709H14.0827V35.1H18.1357V35.709H16.4557V40H15.7627ZM17.91 40L20.129 35.1H20.822L23.048 40H22.313L20.332 35.492H20.612L18.631 40H17.91ZM18.855 38.775L19.044 38.215H21.802L22.005 38.775H18.855ZM25.7064 40.056C25.0624 40.056 24.5561 39.8717 24.1874 39.503C23.8187 39.1343 23.6344 38.5953 23.6344 37.886V35.1H24.3344V37.858C24.3344 38.404 24.4534 38.803 24.6914 39.055C24.9341 39.307 25.2747 39.433 25.7134 39.433C26.1567 39.433 26.4974 39.307 26.7354 39.055C26.9781 38.803 27.0994 38.404 27.0994 37.858V35.1H27.7784V37.886C27.7784 38.5953 27.5941 39.1343 27.2254 39.503C26.8614 39.8717 26.3551 40.056 25.7064 40.056ZM29.2135 40V35.1H31.1245C31.5538 35.1 31.9202 35.1677 32.2235 35.303C32.5268 35.4383 32.7602 35.6343 32.9235 35.891C33.0868 36.1477 33.1685 36.4533 33.1685 36.808C33.1685 37.1627 33.0868 37.4683 32.9235 37.725C32.7602 37.977 32.5268 38.1707 32.2235 38.306C31.9202 38.4413 31.5538 38.509 31.1245 38.509H29.5985L29.9135 38.187V40H29.2135ZM32.4895 40L31.2435 38.222H31.9925L33.2525 40H32.4895ZM29.9135 38.257L29.5985 37.914H31.1035C31.5515 37.914 31.8898 37.8183 32.1185 37.627C32.3518 37.431 32.4685 37.158 32.4685 36.808C32.4685 36.458 32.3518 36.1873 32.1185 35.996C31.8898 35.8047 31.5515 35.709 31.1035 35.709H29.5985L29.9135 35.359V38.257ZM33.5575 40L35.7765 35.1H36.4695L38.6955 40H37.9605L35.9795 35.492H36.2595L34.2785 40H33.5575ZM34.5025 38.775L34.6915 38.215H37.4495L37.6525 38.775H34.5025ZM39.4264 40V35.1H40.0004L43.2414 39.125H42.9404V35.1H43.6404V40H43.0664L39.8254 35.975H40.1264V40H39.4264ZM46.0801 40V35.709H44.4001V35.1H48.4531V35.709H46.7731V40H46.0801ZM51.0954 40V35.1H51.7954V39.391H54.4484V40H51.0954ZM57.3747 40.056C57.0014 40.056 56.6537 39.993 56.3317 39.867C56.0144 39.741 55.7391 39.566 55.5057 39.342C55.2724 39.1133 55.0904 38.8473 54.9597 38.544C54.8291 38.2407 54.7637 37.9093 54.7637 37.55C54.7637 37.1907 54.8291 36.8593 54.9597 36.556C55.0904 36.2527 55.2724 35.989 55.5057 35.765C55.7391 35.5363 56.0144 35.359 56.3317 35.233C56.6491 35.107 56.9967 35.044 57.3747 35.044C57.7481 35.044 58.0911 35.107 58.4037 35.233C58.7211 35.3543 58.9964 35.5293 59.2297 35.758C59.4677 35.982 59.6497 36.2457 59.7757 36.549C59.9064 36.8523 59.9717 37.186 59.9717 37.55C59.9717 37.914 59.9064 38.2477 59.7757 38.551C59.6497 38.8543 59.4677 39.1203 59.2297 39.349C58.9964 39.573 58.7211 39.748 58.4037 39.874C58.0911 39.9953 57.7481 40.056 57.3747 40.056ZM57.3747 39.433C57.6454 39.433 57.8951 39.3863 58.1237 39.293C58.3571 39.1997 58.5577 39.069 58.7257 38.901C58.8984 38.7283 59.0314 38.5277 59.1247 38.299C59.2227 38.0703 59.2717 37.8207 59.2717 37.55C59.2717 37.2793 59.2227 37.0297 59.1247 36.801C59.0314 36.5723 58.8984 36.374 58.7257 36.206C58.5577 36.0333 58.3571 35.9003 58.1237 35.807C57.8951 35.7137 57.6454 35.667 57.3747 35.667C57.0994 35.667 56.8451 35.7137 56.6117 35.807C56.3831 35.9003 56.1824 36.0333 56.0097 36.206C55.8371 36.374 55.7017 36.5723 55.6037 36.801C55.5104 37.0297 55.4637 37.2793 55.4637 37.55C55.4637 37.8207 55.5104 38.0703 55.6037 38.299C55.7017 38.5277 55.8371 38.7283 56.0097 38.901C56.1824 39.069 56.3831 39.1997 56.6117 39.293C56.8451 39.3863 57.0994 39.433 57.3747 39.433ZM63.0716 40.056C62.4276 40.056 61.9213 39.8717 61.5526 39.503C61.184 39.1343 60.9996 38.5953 60.9996 37.886V35.1H61.6996V37.858C61.6996 38.404 61.8186 38.803 62.0566 39.055C62.2993 39.307 62.64 39.433 63.0786 39.433C63.522 39.433 63.8626 39.307 64.1006 39.055C64.3433 38.803 64.4646 38.404 64.4646 37.858V35.1H65.1436V37.886C65.1436 38.5953 64.9593 39.1343 64.5906 39.503C64.2266 39.8717 63.7203 40.056 63.0716 40.056ZM66.5788 40V35.1H67.1528L70.3938 39.125H70.0928V35.1H70.7928V40H70.2188L66.9778 35.975H67.2788V40H66.5788ZM74.4714 40.056C74.0934 40.056 73.7457 39.9953 73.4284 39.874C73.1111 39.748 72.8357 39.573 72.6024 39.349C72.3691 39.1203 72.1871 38.8543 72.0564 38.551C71.9257 38.2477 71.8604 37.914 71.8604 37.55C71.8604 37.186 71.9257 36.8523 72.0564 36.549C72.1871 36.2457 72.3691 35.982 72.6024 35.758C72.8404 35.5293 73.1181 35.3543 73.4354 35.233C73.7527 35.107 74.1027 35.044 74.4854 35.044C74.8727 35.044 75.2274 35.107 75.5494 35.233C75.8714 35.359 76.1444 35.548 76.3684 35.8L75.9344 36.234C75.7337 36.038 75.5144 35.8957 75.2764 35.807C75.0431 35.7137 74.7887 35.667 74.5134 35.667C74.2334 35.667 73.9721 35.7137 73.7294 35.807C73.4914 35.9003 73.2837 36.031 73.1064 36.199C72.9337 36.367 72.7984 36.5677 72.7004 36.801C72.6071 37.0297 72.5604 37.2793 72.5604 37.55C72.5604 37.816 72.6071 38.0657 72.7004 38.299C72.7984 38.5277 72.9337 38.7283 73.1064 38.901C73.2837 39.069 73.4914 39.1997 73.7294 39.293C73.9674 39.3863 74.2264 39.433 74.5064 39.433C74.7677 39.433 75.0174 39.3933 75.2554 39.314C75.4981 39.23 75.7221 39.0923 75.9274 38.901L76.3264 39.433C76.0837 39.6383 75.7991 39.7947 75.4724 39.902C75.1504 40.0047 74.8167 40.056 74.4714 40.056ZM75.6544 39.342V37.522H76.3264V39.433L75.6544 39.342ZM78.3036 37.214H80.8236V37.809H78.3036V37.214ZM78.3666 39.391H81.2226V40H77.6666V35.1H81.1246V35.709H78.3666V39.391ZM86.427 40.056C86.0536 40.056 85.7083 39.9953 85.391 39.874C85.0783 39.748 84.8053 39.573 84.572 39.349C84.3433 39.1203 84.1636 38.8543 84.033 38.551C83.9023 38.2477 83.837 37.914 83.837 37.55C83.837 37.186 83.9023 36.8523 84.033 36.549C84.1636 36.2457 84.3456 35.982 84.579 35.758C84.8123 35.5293 85.0853 35.3543 85.398 35.233C85.7153 35.107 86.0606 35.044 86.434 35.044C86.812 35.044 87.1596 35.1093 87.477 35.24C87.799 35.366 88.072 35.555 88.296 35.807L87.841 36.248C87.6543 36.052 87.4443 35.9073 87.211 35.814C86.9776 35.716 86.728 35.667 86.462 35.667C86.1866 35.667 85.93 35.7137 85.692 35.807C85.4586 35.9003 85.2556 36.031 85.083 36.199C84.9103 36.367 84.775 36.5677 84.677 36.801C84.5836 37.0297 84.537 37.2793 84.537 37.55C84.537 37.8207 84.5836 38.0727 84.677 38.306C84.775 38.5347 84.9103 38.733 85.083 38.901C85.2556 39.069 85.4586 39.1997 85.692 39.293C85.93 39.3863 86.1866 39.433 86.462 39.433C86.728 39.433 86.9776 39.3863 87.211 39.293C87.4443 39.195 87.6543 39.0457 87.841 38.845L88.296 39.286C88.072 39.538 87.799 39.7293 87.477 39.86C87.1596 39.9907 86.8096 40.056 86.427 40.056ZM89.2946 40V35.1H89.9946V40H89.2946ZM93.6736 40.056C93.2956 40.056 92.9479 39.9953 92.6306 39.874C92.3132 39.748 92.0379 39.573 91.8046 39.349C91.5712 39.1203 91.3892 38.8543 91.2586 38.551C91.1279 38.2477 91.0626 37.914 91.0626 37.55C91.0626 37.186 91.1279 36.8523 91.2586 36.549C91.3892 36.2457 91.5712 35.982 91.8046 35.758C92.0426 35.5293 92.3202 35.3543 92.6376 35.233C92.9549 35.107 93.3049 35.044 93.6876 35.044C94.0749 35.044 94.4296 35.107 94.7516 35.233C95.0736 35.359 95.3466 35.548 95.5706 35.8L95.1366 36.234C94.9359 36.038 94.7166 35.8957 94.4786 35.807C94.2452 35.7137 93.9909 35.667 93.7156 35.667C93.4356 35.667 93.1742 35.7137 92.9316 35.807C92.6936 35.9003 92.4859 36.031 92.3086 36.199C92.1359 36.367 92.0006 36.5677 91.9026 36.801C91.8092 37.0297 91.7626 37.2793 91.7626 37.55C91.7626 37.816 91.8092 38.0657 91.9026 38.299C92.0006 38.5277 92.1359 38.7283 92.3086 38.901C92.4859 39.069 92.6936 39.1997 92.9316 39.293C93.1696 39.3863 93.4286 39.433 93.7086 39.433C93.9699 39.433 94.2196 39.3933 94.4576 39.314C94.7002 39.23 94.9242 39.0923 95.1296 38.901L95.5286 39.433C95.2859 39.6383 95.0012 39.7947 94.6746 39.902C94.3526 40.0047 94.0189 40.056 93.6736 40.056ZM94.8566 39.342V37.522H95.5286V39.433L94.8566 39.342ZM96.1268 40L98.3458 35.1H99.0388L101.265 40H100.53L98.5488 35.492H98.8288L96.8478 40H96.1268ZM97.0718 38.775L97.2608 38.215H100.019L100.222 38.775H97.0718ZM101.996 40V35.1H103.907C104.336 35.1 104.702 35.1677 105.006 35.303C105.309 35.4383 105.542 35.6343 105.706 35.891C105.869 36.1477 105.951 36.4533 105.951 36.808C105.951 37.1627 105.869 37.4683 105.706 37.725C105.542 37.977 105.309 38.1707 105.006 38.306C104.702 38.4413 104.336 38.509 103.907 38.509H102.381L102.696 38.187V40H101.996ZM105.272 40L104.026 38.222H104.775L106.035 40H105.272ZM102.696 38.257L102.381 37.914H103.886C104.334 37.914 104.672 37.8183 104.901 37.627C105.134 37.431 105.251 37.158 105.251 36.808C105.251 36.458 105.134 36.1873 104.901 35.996C104.672 35.8047 104.334 35.709 103.886 35.709H102.381L102.696 35.359V38.257ZM108.962 40V35.1H111.16C111.724 35.1 112.158 35.2143 112.462 35.443C112.765 35.667 112.917 35.975 112.917 36.367C112.917 36.633 112.856 36.857 112.735 37.039C112.618 37.221 112.459 37.361 112.259 37.459C112.058 37.557 111.841 37.606 111.608 37.606L111.734 37.396C112.014 37.396 112.261 37.445 112.476 37.543C112.69 37.641 112.861 37.7857 112.987 37.977C113.113 38.1637 113.176 38.397 113.176 38.677C113.176 39.097 113.017 39.4237 112.7 39.657C112.387 39.8857 111.92 40 111.3 40H108.962ZM109.662 39.433H111.272C111.659 39.433 111.955 39.3677 112.161 39.237C112.366 39.1063 112.469 38.901 112.469 38.621C112.469 38.3363 112.366 38.1287 112.161 37.998C111.955 37.8673 111.659 37.802 111.272 37.802H109.599V37.235H111.097C111.451 37.235 111.727 37.1697 111.923 37.039C112.119 36.9083 112.217 36.7123 112.217 36.451C112.217 36.1897 112.119 35.9937 111.923 35.863C111.727 35.7323 111.451 35.667 111.097 35.667H109.662V39.433ZM113.517 40L115.736 35.1H116.429L118.655 40H117.92L115.939 35.492H116.219L114.238 40H113.517ZM114.462 38.775L114.651 38.215H117.409L117.612 38.775H114.462ZM119.386 40V35.1H121.297C121.727 35.1 122.093 35.1677 122.396 35.303C122.7 35.4383 122.933 35.6343 123.096 35.891C123.26 36.1477 123.341 36.4533 123.341 36.808C123.341 37.1627 123.26 37.4683 123.096 37.725C122.933 37.977 122.7 38.1707 122.396 38.306C122.093 38.4413 121.727 38.509 121.297 38.509H119.771L120.086 38.187V40H119.386ZM122.662 40L121.416 38.222H122.165L123.425 40H122.662ZM120.086 38.257L119.771 37.914H121.276C121.724 37.914 122.063 37.8183 122.291 37.627C122.525 37.431 122.641 37.158 122.641 36.808C122.641 36.458 122.525 36.1873 122.291 35.996C122.063 35.8047 121.724 35.709 121.276 35.709H119.771L120.086 35.359V38.257Z" fill="#D9B26F"/>
<path d="M0 26.7289V25.9555H0.293894C0.804342 25.9555 1.16011 24.9811 1.16011 23.5889V5.96301C1.16011 4.59408 0.773406 3.64279 0.293894 3.64279H0V2.86938H4.246V3.64279H3.9521C3.44166 3.64279 3.09362 4.59408 3.09362 5.96301V25.8009H11.4696C11.8099 25.8009 12.8617 25.8009 12.8617 23.6044V23.3105H13.6351V26.7289H0Z" fill="#D9B26F"/>
<path d="M0.293945 26.2647C1.12922 26.2647 1.46179 24.9345 1.46179 23.6042V5.96281C1.46179 4.63256 1.12922 3.3023 0.293945 3.3023V3.16309H3.95215V3.3255C3.09367 3.3255 2.79205 4.65576 2.79205 5.96281V26.0714H11.4697C12.7999 26.0714 13.1479 24.9345 13.1479 23.6042H13.3104V26.4349H0.293945V26.2647Z" fill="#D9B26F"/>
<path d="M11.547 5.9167L11.8177 5.46812C12.0401 5.1185 12.1948 4.73023 12.274 4.32348H12.2044C12.0352 4.33693 11.8651 4.31522 11.7047 4.25971C11.5443 4.20421 11.3972 4.11611 11.2725 4.00097C11.1479 3.88583 11.0484 3.74613 10.9804 3.59066C10.9123 3.4352 10.8772 3.26734 10.8772 3.09764C10.8772 2.92793 10.9123 2.76007 10.9804 2.60461C11.0484 2.44914 11.1479 2.30944 11.2725 2.1943C11.3972 2.07916 11.5443 1.99106 11.7047 1.93556C11.8651 1.88005 12.0352 1.85834 12.2044 1.87179C12.384 1.8804 12.5601 1.92537 12.7219 2.00397C12.8837 2.08257 13.0279 2.19317 13.1457 2.32909C13.2636 2.465 13.3526 2.62341 13.4075 2.79472C13.4624 2.96604 13.4819 3.1467 13.465 3.32579C13.4443 4.19732 13.1761 5.04498 12.6916 5.76975L12.6065 5.9167H11.547Z" fill="#D9B26F"/>
<path d="M12.6066 3.92885C12.4827 3.99472 12.3447 4.02924 12.2044 4.0294C12.0749 4.04121 11.9443 4.02589 11.821 3.98442C11.6978 3.94296 11.5845 3.87625 11.4885 3.78856C11.3924 3.70087 11.3157 3.59412 11.2632 3.47513C11.2107 3.35613 11.1836 3.2275 11.1836 3.09744C11.1836 2.96738 11.2107 2.83875 11.2632 2.71976C11.3157 2.60076 11.3924 2.49401 11.4885 2.40632C11.5845 2.31863 11.6978 2.25193 11.821 2.21046C11.9443 2.16899 12.0749 2.15368 12.2044 2.16549C12.3432 2.17798 12.4781 2.21814 12.6011 2.28359C12.7242 2.34904 12.8329 2.43846 12.9208 2.54658C13.0087 2.65469 13.0741 2.77932 13.1132 2.91312C13.1522 3.04691 13.164 3.18716 13.148 3.3256C13.1158 4.15677 12.8476 4.9616 12.3746 5.64581H12.011C12.3424 5.14158 12.5272 4.55518 12.5447 3.95206" fill="#D9B26F"/>
<path d="M29.0258 26.7289V25.9555H29.3274C29.8379 25.9555 30.1936 24.9811 30.1936 23.5889V12.6298H19.25V23.6044C19.25 24.9965 19.6057 25.971 20.1162 25.971H20.4101V26.7444H16.1641V25.971H16.458C16.9684 25.971 17.3242 24.9965 17.3242 23.6044V5.96301C17.3242 4.57088 16.9684 3.60412 16.458 3.60412H16.1641V2.86938H20.4101V3.64279H20.1084C19.6057 3.64279 19.25 4.59408 19.25 5.96301V11.6862H30.1627V5.96301C30.1627 4.59408 29.8379 3.64279 29.3274 3.64279H29.0258V2.86938H33.2563V3.64279H32.9624C32.4829 3.64279 32.1117 4.59408 32.1117 5.96301V23.6044C32.1117 24.9965 32.4752 25.971 32.9856 25.971H33.2563V26.7444L29.0258 26.7289Z" fill="#D9B26F"/>
<path d="M16.458 26.2647C17.2933 26.2647 17.6259 24.9345 17.6259 23.6042V5.96281C17.6259 4.63256 17.2933 3.3023 16.458 3.3023V3.16309H20.1085V3.3255C19.2809 3.3255 18.9484 4.65576 18.9484 5.98602V12.0031H30.4876V5.96281C30.4876 4.63256 30.155 3.3023 29.3275 3.3023V3.16309H32.9857V3.3255C32.1504 3.3255 31.8178 4.65576 31.8178 5.98602V23.6042C31.8178 24.9345 32.1504 26.2647 32.9857 26.2647V26.4349H29.3275V26.2647C30.155 26.2647 30.4876 24.9345 30.4876 23.6042V12.3357H18.9561V23.6042C18.9561 24.9345 19.2887 26.2647 20.1162 26.2647V26.4349H16.458V26.2647Z" fill="#D9B26F"/>
<path d="M71.1534 27.2626C64.8038 27.2626 61.9267 17.9817 61.3467 15.8626C58.3536 17.0923 55.6853 18.6391 55.6853 23.0785V23.6044C55.6853 24.9965 56.0411 25.971 56.5515 25.971H56.8454V26.7444H52.6304V25.971H52.9243C53.4347 25.971 53.7905 24.9965 53.7905 23.6044V5.96301C53.7905 4.57088 53.4347 3.60412 52.9243 3.60412H52.6304V2.86938H56.4974C61.5787 2.86938 68.3305 3.56545 68.3305 9.57481C68.3305 13.0319 65.5308 14.2152 63.1642 15.1433C64.2624 19.4203 66.7682 26.2726 71.5247 26.2726C73.0447 26.1853 74.5041 25.6467 75.7165 24.7258L75.9563 24.5634L76.4203 25.2517L76.1806 25.4142C74.7324 26.5283 72.9784 27.1732 71.1534 27.2626ZM55.6853 18.9485C56.9537 16.7056 59.243 15.7234 61.3002 14.8417C63.9298 13.7203 66.1959 12.7458 66.1959 9.57481C66.1959 4.47807 61.2693 3.78974 56.451 3.78974H55.6853V18.9485ZM70.9137 21.0754V20.3019H71.2076C71.718 20.3019 72.0815 19.3275 72.0815 17.9817V5.96301C72.0815 4.57088 71.718 3.60412 71.2076 3.60412H70.9137V2.86938H75.1674V3.64279H74.8658C74.3863 3.64279 74.0305 4.59408 74.0305 5.96301V17.9585C74.0305 19.3429 74.3863 20.2787 74.8967 20.2787H75.1984V21.0522L70.9137 21.0754Z" fill="#D9B26F"/>
<path d="M52.9241 26.2647C53.7594 26.2647 54.0919 24.9345 54.0919 23.6042V5.96281C54.0919 4.63256 53.7594 3.3023 52.9241 3.3023V3.16309H56.4585C62.4447 3.16309 67.99 4.29226 67.99 9.57462C67.99 12.7997 65.5306 13.898 62.7773 14.9885C63.7363 18.8555 66.2344 26.5895 71.4858 26.5895C73.0587 26.5182 74.5747 25.9797 75.8401 25.0427L75.9716 25.2438C74.577 26.292 72.8964 26.8909 71.1532 26.9608C65.5306 26.9608 62.4756 19.2267 61.5475 15.4602C58.4539 16.69 55.3603 18.2522 55.3603 23.0783V23.6042C55.3603 24.9345 55.6929 26.2647 56.5281 26.2647V26.4349H52.9241V26.2647ZM66.5128 9.57462C66.5128 4.26132 61.5243 3.49565 56.4585 3.49565H55.4144V20.3791C57.4485 13.9289 66.5128 16.0635 66.5128 9.57462ZM71.2306 20.6111C72.0659 20.6111 72.3984 19.2886 72.3984 17.9583V5.96281C72.3984 4.63256 72.0659 3.3023 71.2306 3.3023V3.16309H74.8888V3.3255C74.0613 3.3255 73.7287 4.65576 73.7287 5.98602V17.9583C73.7287 19.2886 74.0613 20.6111 74.8888 20.6111V20.7813H71.2383L71.2306 20.6111Z" fill="#D9B26F"/>
<path d="M83.3808 26.7289V25.9555H83.6824C84.1929 25.9555 84.5486 24.9811 84.5486 23.5889V3.78974H80.1557C79.8077 3.78974 78.7558 3.78974 78.7558 5.98621V6.2801H77.9824V2.86938H93.002V6.2801H92.2286V5.96301C92.2286 3.76654 91.1767 3.76654 90.8287 3.76654H86.4667V23.6044C86.4667 24.9965 86.8224 25.971 87.3329 25.971H87.6345V26.7444L83.3808 26.7289Z" fill="#D9B26F"/>
<path d="M83.6824 26.2647C84.5099 26.2647 84.8425 24.9345 84.8425 23.6042V3.49565H80.1557C78.8254 3.49565 78.4619 4.65576 78.4619 5.98602H78.2917V3.16309H92.7235V5.96281H92.5533C92.5533 4.63256 92.1898 3.47245 90.8596 3.47245H86.1727V23.581C86.1727 24.9113 86.5053 26.2415 87.3329 26.2415V26.4117H83.6824V26.2647Z" fill="#D9B26F"/>
<path d="M106.73 26.7289V25.9555H107.024C107.058 25.9603 107.092 25.9556 107.124 25.942C107.155 25.9283 107.182 25.9062 107.202 25.8782C107.372 25.6462 107.357 24.8805 106.947 23.6895L104.789 16.8216C100.442 17.2238 96.8769 19.4976 95.6704 22.6686L95.3765 23.674C94.9666 24.8805 94.9511 25.6462 95.1135 25.8782C95.1337 25.9056 95.1608 25.9272 95.192 25.9408C95.2233 25.9544 95.2576 25.9595 95.2914 25.9555H95.5853V26.7289H92.3679V25.9555H92.6618C93.2573 25.9555 93.9689 24.9578 94.4406 23.4652L99.9628 5.88567C100.303 4.89571 100.388 3.99856 100.172 3.69693C100.15 3.66621 100.121 3.64198 100.087 3.62696C100.053 3.61193 100.015 3.6067 99.9782 3.61185H99.6843V2.86938H102.422L108.903 23.4884C109.375 24.9733 110.094 25.971 110.682 25.971H110.976V26.7444L106.73 26.7289ZM96.7222 19.4125C98.8237 17.3705 101.586 16.1471 104.51 15.9631L101.169 5.25147L96.7222 19.4125Z" fill="#D9B26F"/>
<path d="M107.016 26.2647C107.851 26.2647 107.65 24.8726 107.217 23.6042L104.99 16.5275C100.566 16.8601 96.7144 19.0875 95.3842 22.5756L95.0825 23.6042C94.6494 24.8726 94.4483 26.2647 95.2836 26.2647V26.4349H92.6541V26.2647C93.4893 26.2647 94.255 25.035 94.719 23.5733L100.233 5.96281C100.667 4.70216 100.798 3.3023 99.9705 3.3023V3.16309H102.198L108.617 23.5733C109.081 25.035 109.847 26.2647 110.674 26.2647V26.4349H107.016V26.2647ZM104.889 16.2104L101.169 4.26132L95.9488 20.8509C97.8436 17.9197 101.401 16.4889 104.889 16.2104Z" fill="#D9B26F"/>
<path d="M122.554 27.2626C116.367 27.2626 111.347 21.6708 111.347 14.7953C111.347 7.91968 116.374 2.33569 122.554 2.33569C124.364 2.37417 126.136 2.86229 127.71 3.75607C129.284 4.64985 130.611 5.92122 131.572 7.45564L131.773 7.74953L129.491 8.70856L129.383 8.41466C128.192 5.08902 125.763 3.25605 122.554 3.25605C117.14 3.25605 113.606 7.7882 113.606 14.7953C113.606 21.8023 117.117 26.3345 122.554 26.3345C126.421 26.3345 130.365 22.7923 130.365 19.3197V12.9623H123.876C122.492 12.9623 121.556 13.3258 121.556 13.8362V14.1301H120.783V12.0419H133.474V12.8153H133.18C132.67 12.8153 132.314 13.7898 132.314 15.182V23.6043C132.314 24.9965 132.67 25.971 133.18 25.971H133.474V26.7444H129.228V25.971H129.522C130.017 25.971 130.373 25.0429 130.388 23.7126C129.405 24.8148 128.202 25.6998 126.857 26.311C125.512 26.9223 124.054 27.2463 122.577 27.2626" fill="#D9B26F"/>
<path d="M111.649 14.7953C111.649 8.11308 116.537 2.62964 122.554 2.62964C124.316 2.66437 126.041 3.13891 127.573 4.01012C129.104 4.88134 130.394 6.12158 131.324 7.61811L129.662 8.31417C128.432 4.88798 125.872 2.9622 122.554 2.9622C117.465 2.9622 113.273 7.01485 113.273 14.7953C113.273 22.5758 117.426 26.6284 122.554 26.6284C126.506 26.6284 130.659 23.0089 130.659 19.3197V12.6684H123.876C122.554 12.6684 121.224 13.001 121.224 13.8363H121.054V12.3359H133.157V12.506C132.322 12.506 131.989 13.8363 131.989 15.1665V23.6044C131.989 24.9347 132.322 26.2649 133.157 26.2649V26.4351H129.499V26.2649C130.327 26.2649 130.659 24.9347 130.659 23.6044V22.9083C129.702 24.1523 128.476 25.1633 127.072 25.8652C125.668 26.5671 124.123 26.9418 122.554 26.961C116.537 26.961 111.649 21.5471 111.649 14.7953Z" fill="#D9B26F"/>
<path d="M135.856 26.7289V25.9555H136.119C136.63 25.9555 136.986 24.9811 136.986 23.5889V5.96301C136.986 4.57088 136.63 3.60412 136.119 3.60412H135.825V2.86938H149.113V6.2801H148.339V5.96301C148.339 3.76654 147.287 3.76654 146.939 3.76654H138.896V11.7094H144.31C145.702 11.7094 145.702 11.5083 145.702 11.0752V10.7813H146.475V13.5656H145.702V13.2717C145.702 12.8308 145.702 12.6298 144.31 12.6298H138.896V25.7777H147.272C147.62 25.7777 148.672 25.7777 148.672 23.5812V23.2873H149.445V26.7057L135.856 26.7289Z" fill="#D9B26F"/>
<path d="M136.119 26.2647C136.955 26.2647 137.287 24.9345 137.287 23.6042V5.96281C137.287 4.63256 136.955 3.3023 136.119 3.3023V3.16309H148.819V5.96281H148.656C148.656 4.63256 148.285 3.47245 146.955 3.47245H138.648V11.9799H144.333C145.655 11.9799 146.027 11.8175 146.027 11.0518H146.174V13.2483H146.011C146.011 12.4749 145.64 12.3125 144.317 12.3125H138.633V26.0714H147.303C148.633 26.0714 149.004 24.9035 149.004 23.5733H149.167V26.4039H136.119V26.2647Z" fill="#D9B26F"/>
<path d="M36.0871 26.7289V25.9555H36.35C36.8605 25.9555 37.2163 24.9811 37.2163 23.5889V5.96301C37.2472 4.59408 36.8914 3.64279 36.35 3.64279H36.0562V2.86938H49.3742V6.2801H48.6008V5.96301C48.6008 3.76654 47.549 3.76654 47.2009 3.76654H39.173V11.7094H44.5868C45.9867 11.7094 45.9867 11.5083 45.9867 11.0752V10.7736H46.7601V13.5656H45.9867V13.2717C45.9867 12.8308 45.9867 12.6298 44.5868 12.6298H39.173V25.7777H47.549C47.897 25.7777 48.9488 25.7777 48.9488 23.5812V23.2873H49.7222V26.7057L36.0871 26.7289Z" fill="#D9B26F"/>
<path d="M36.3501 26.2647C37.1776 26.2647 37.5102 24.9345 37.5102 23.6042V5.96281C37.5102 4.63256 37.1776 3.3023 36.3501 3.3023V3.16309H49.0804V5.96281H48.9102C48.9102 4.63256 48.5467 3.47245 47.2164 3.47245H38.8714V11.9799H44.5559C45.8862 11.9799 46.2497 11.8175 46.2497 11.0518H46.4044V13.2483H46.2497C46.2497 12.4749 45.8862 12.3125 44.5559 12.3125H38.8714V26.0714H47.549C48.8793 26.0714 49.2428 24.9035 49.2428 23.5733H49.4129V26.4039H36.3501V26.2647Z" fill="#D9B26F"/>
</svg>
